<mxfile host="app.diagrams.net" modified="2024-07-18T18:41:55.539Z" agent="Mozilla/5.0 (Windows NT 10.0; Win64; x64) AppleWebKit/537.36 (KHTML, like Gecko) Chrome/126.0.0.0 Safari/537.36" etag="QQz3XFBJLOfizRoCKdxj" version="24.6.5" type="github">
  <diagram name="Page-1" id="inqWLciCbVHI9luaHnti">
    <mxGraphModel dx="1032" dy="501" grid="1" gridSize="10" guides="1" tooltips="1" connect="1" arrows="1" fold="1" page="1" pageScale="1" pageWidth="827" pageHeight="1169" math="0" shadow="0">
      <root>
        <mxCell id="0" />
        <mxCell id="1" parent="0" />
        <mxCell id="StorMDXj1wA3yloI9Yh7-1" value="&lt;b&gt;&lt;font style=&quot;font-size: 16px;&quot;&gt;DEM&lt;/font&gt;&lt;/b&gt;" style="rounded=0;whiteSpace=wrap;html=1;" vertex="1" parent="1">
          <mxGeometry x="140" y="130" width="110" height="50" as="geometry" />
        </mxCell>
        <mxCell id="StorMDXj1wA3yloI9Yh7-5" value="&lt;b&gt;&lt;font style=&quot;font-size: 16px;&quot;&gt;Satellite Imagery&lt;/font&gt;&lt;/b&gt;" style="rounded=0;whiteSpace=wrap;html=1;" vertex="1" parent="1">
          <mxGeometry x="290" y="80" width="110" height="50" as="geometry" />
        </mxCell>
        <mxCell id="StorMDXj1wA3yloI9Yh7-6" value="&lt;b&gt;&lt;font style=&quot;font-size: 16px;&quot;&gt;Erosion Hydrological Response Units&lt;/font&gt;&lt;/b&gt;" style="rounded=0;whiteSpace=wrap;html=1;" vertex="1" parent="1">
          <mxGeometry x="230" y="210" width="140" height="60" as="geometry" />
        </mxCell>
        <mxCell id="StorMDXj1wA3yloI9Yh7-7" value="&lt;b&gt;&lt;font style=&quot;font-size: 16px;&quot;&gt;Soil loss&lt;/font&gt;&lt;/b&gt;" style="rounded=0;whiteSpace=wrap;html=1;" vertex="1" parent="1">
          <mxGeometry x="50" y="220" width="110" height="50" as="geometry" />
        </mxCell>
        <mxCell id="StorMDXj1wA3yloI9Yh7-8" value="&lt;b&gt;&lt;font style=&quot;font-size: 16px;&quot;&gt;STI&lt;/font&gt;&lt;/b&gt;" style="rounded=0;whiteSpace=wrap;html=1;" vertex="1" parent="1">
          <mxGeometry x="610" y="300" width="110" height="50" as="geometry" />
        </mxCell>
        <mxCell id="StorMDXj1wA3yloI9Yh7-9" value="&lt;b&gt;&lt;font style=&quot;font-size: 16px;&quot;&gt;&amp;nbsp;Erosivity (R)&lt;/font&gt;&lt;/b&gt;" style="rounded=0;whiteSpace=wrap;html=1;" vertex="1" parent="1">
          <mxGeometry x="490" y="230" width="100" height="50" as="geometry" />
        </mxCell>
        <mxCell id="StorMDXj1wA3yloI9Yh7-10" value="&lt;b&gt;&lt;font style=&quot;font-size: 16px;&quot;&gt;LULC&lt;/font&gt;&lt;/b&gt;" style="rounded=0;whiteSpace=wrap;html=1;" vertex="1" parent="1">
          <mxGeometry x="520" y="110" width="110" height="50" as="geometry" />
        </mxCell>
        <mxCell id="StorMDXj1wA3yloI9Yh7-11" value="&lt;b&gt;&lt;font style=&quot;font-size: 16px;&quot;&gt;C- Factor&lt;/font&gt;&lt;/b&gt;" style="rounded=0;whiteSpace=wrap;html=1;" vertex="1" parent="1">
          <mxGeometry x="440" y="330" width="110" height="50" as="geometry" />
        </mxCell>
        <mxCell id="StorMDXj1wA3yloI9Yh7-12" value="&lt;span style=&quot;font-size: 16px;&quot;&gt;&lt;b&gt;Runoff&lt;/b&gt;&lt;/span&gt;" style="rounded=0;whiteSpace=wrap;html=1;" vertex="1" parent="1">
          <mxGeometry x="170" y="350" width="110" height="50" as="geometry" />
        </mxCell>
        <mxCell id="StorMDXj1wA3yloI9Yh7-13" value="&lt;b&gt;&lt;font style=&quot;font-size: 16px;&quot;&gt;P- Factor&amp;nbsp;&lt;/font&gt;&lt;/b&gt;" style="rounded=0;whiteSpace=wrap;html=1;" vertex="1" parent="1">
          <mxGeometry x="304" y="330" width="110" height="50" as="geometry" />
        </mxCell>
        <mxCell id="StorMDXj1wA3yloI9Yh7-14" value="&lt;span style=&quot;font-size: 16px;&quot;&gt;&lt;b&gt;Sediment Yield&lt;/b&gt;&lt;/span&gt;" style="rounded=0;whiteSpace=wrap;html=1;" vertex="1" parent="1">
          <mxGeometry x="50" y="310" width="110" height="50" as="geometry" />
        </mxCell>
        <mxCell id="StorMDXj1wA3yloI9Yh7-15" value="&lt;b&gt;&lt;font style=&quot;font-size: 16px;&quot;&gt;Fuzzy ANP&lt;/font&gt;&lt;/b&gt;" style="rounded=0;whiteSpace=wrap;html=1;" vertex="1" parent="1">
          <mxGeometry x="330" y="440" width="110" height="50" as="geometry" />
        </mxCell>
        <mxCell id="StorMDXj1wA3yloI9Yh7-16" value="&lt;b&gt;&lt;font style=&quot;font-size: 16px;&quot;&gt;Soil Erosion&lt;/font&gt;&lt;/b&gt;" style="rounded=0;whiteSpace=wrap;html=1;" vertex="1" parent="1">
          <mxGeometry x="490" y="420" width="110" height="50" as="geometry" />
        </mxCell>
        <mxCell id="StorMDXj1wA3yloI9Yh7-17" value="&lt;b&gt;&lt;font style=&quot;font-size: 16px;&quot;&gt;Soil Erosion Susceptibility Map&lt;/font&gt;&lt;/b&gt;" style="rounded=0;whiteSpace=wrap;html=1;" vertex="1" parent="1">
          <mxGeometry x="620" y="400" width="170" height="50" as="geometry" />
        </mxCell>
        <mxCell id="StorMDXj1wA3yloI9Yh7-18" value="&lt;b&gt;&lt;font style=&quot;font-size: 16px;&quot;&gt;K- Factor&amp;nbsp;&lt;/font&gt;&lt;/b&gt;" style="rounded=0;whiteSpace=wrap;html=1;" vertex="1" parent="1">
          <mxGeometry x="650" y="210" width="110" height="50" as="geometry" />
        </mxCell>
        <mxCell id="StorMDXj1wA3yloI9Yh7-19" value="&lt;b&gt;&lt;font style=&quot;font-size: 16px;&quot;&gt;LS- Factor&amp;nbsp;&lt;/font&gt;&lt;/b&gt;" style="rounded=0;whiteSpace=wrap;html=1;" vertex="1" parent="1">
          <mxGeometry x="370" y="250" width="110" height="50" as="geometry" />
        </mxCell>
      </root>
    </mxGraphModel>
  </diagram>
</mxfile>
